<mxfile host="app.diagrams.net" agent="Mozilla/5.0 (Windows NT 10.0; Win64; x64) AppleWebKit/537.36 (KHTML, like Gecko) Chrome/131.0.0.0 Safari/537.36" version="26.0.5">
  <diagram name="Page-1" id="zYYa5P0ZVX_Zwe4RpQeV">
    <mxGraphModel dx="954" dy="558" grid="1" gridSize="10" guides="1" tooltips="1" connect="1" arrows="1" fold="1" page="1" pageScale="1" pageWidth="850" pageHeight="1100" math="0" shadow="0">
      <root>
        <mxCell id="0" />
        <mxCell id="1" parent="0" />
        <mxCell id="_SFTHddvR5x8rRERTsNR-1" value="&lt;b&gt;BatteryPack Specification Behavioral Model&lt;/b&gt;" style="text;fontSize=16;verticalAlign=middle;strokeColor=none;fillColor=none;whiteSpace=wrap;html=1;" vertex="1" parent="1">
          <mxGeometry x="40" y="40" width="430" height="30" as="geometry" />
        </mxCell>
        <mxCell id="_SFTHddvR5x8rRERTsNR-2" value="" style="dashed=0;shape=line;strokeWidth=2;noLabel=1;strokeColor=#0C8CF2;opacity=50;" vertex="1" parent="1">
          <mxGeometry x="40" y="65" width="340" height="10" as="geometry" />
        </mxCell>
      </root>
    </mxGraphModel>
  </diagram>
</mxfile>
